<svg width="16" height="17" viewBox="0 0 16 17" fill="none" xmlns="http://www.w3.org/2000/svg">
<path fill-rule="evenodd" clip-rule="evenodd" d="M8 14C6.10737 14 4.49911 14.3704 3.65744 14.949C3.31641 15.1835 3.15629 15.4651 3.07616 15.6855C3.03512 15.7984 3.01563 15.8946 3.00663 15.9564C3.00219 15.987 3.00051 16.0077 2.99995 16.0162C2.99974 16.0194 2.9997 16.0207 2.99973 16.02C2.99973 16.0197 2.99975 16.0194 2.99977 16.0188L2.99991 16.0122L2.99997 16.0068L2.99999 16.0036L3 16.0018C3 16.0014 3 16 2 16C1 16 1 15.9995 1 15.999L1.00001 15.996L1.00003 15.9915L1.00015 15.9813L1.00077 15.9556C1.00138 15.9362 1.00245 15.9123 1.00431 15.8842C1.00801 15.8282 1.01485 15.7552 1.02746 15.6686C1.05255 15.496 1.10125 15.2641 1.19657 15.002C1.38916 14.4724 1.7745 13.8165 2.52438 13.301C3.86453 12.3796 5.96486 12 8 12C10.0351 12 12.1355 12.3796 13.4756 13.301C14.2255 13.8165 14.6108 14.4724 14.8034 15.002C14.8988 15.2641 14.9474 15.496 14.9725 15.6686C14.9851 15.7552 14.992 15.8282 14.9957 15.8842C14.9975 15.9123 14.9986 15.9362 14.9992 15.9556L14.9998 15.9813L15 15.9915L15 15.996L15 15.998C15 15.9985 15 16 14 16C13 16 13 16.0005 13 16.0009L13 16.0036L13 16.0068L13.0001 16.0122L13.0002 16.0188C13.0003 16.0213 13.0003 16.0204 13 16.0162C12.9995 16.0077 12.9978 15.987 12.9934 15.9564C12.9844 15.8946 12.9649 15.7984 12.9238 15.6855C12.8437 15.4651 12.6836 15.1835 12.3426 14.949C11.5009 14.3704 9.89263 14 8 14Z" fill="#828D96"/>
<path fill-rule="evenodd" clip-rule="evenodd" d="M9.14858 8.05369C9.65273 7.27342 10 6.15396 10 5C10 3.57466 9.63693 2.85668 9.33511 2.5179C9.05437 2.20278 8.63727 2 8 2C7.36273 2 6.94563 2.20278 6.66489 2.5179C6.36307 2.85668 6 3.57466 6 5C6 6.15396 6.34727 7.27342 6.85142 8.05369C7.38312 8.87661 7.84531 9 8 9C8.15469 9 8.61688 8.87661 9.14858 8.05369ZM12 5C12 8.03757 10.2092 11 8 11C5.79083 11 4 8.03757 4 5C4 1.5 5.79083 0 8 0C10.2092 0 12 1.5 12 5Z" fill="#828D96"/>
</svg>
