<svg width="158" height="202" viewBox="0 0 158 202" fill="none" xmlns="http://www.w3.org/2000/svg">
<rect x="2.5" y="2.5" width="153" height="197" fill="#E9E9E9" stroke="#505355" stroke-width="5"/>
<rect x="105.5" y="2.5" width="50" height="51" fill="white" stroke="#505355" stroke-width="5"/>
<rect x="107.495" y="5.55933" width="2.23033" height="62.7766" transform="rotate(-45 107.495 5.55933)" stroke="#505355" stroke-width="2.23033"/>
<path d="M37.4902 84.2715V104H45.502C51.4492 104 54.9629 100.322 54.9629 94.0195C54.9629 87.7305 51.4629 84.2715 45.502 84.2715H37.4902ZM42.5078 88.3184H44.8457C48.0176 88.3184 49.8633 90.3281 49.8633 94.0332C49.8633 97.9707 48.1133 99.9531 44.8457 99.9531H42.5078V88.3184ZM69.3867 104H74.7188L68.0879 84.2715H61.9492L55.3184 104H60.4316L61.6895 99.666H68.1426L69.3867 104ZM64.8613 88.4551H64.9707L67.1582 96.0566H62.6602L64.8613 88.4551ZM83.5781 104V88.3184H89.0195V84.2715H73.1328V88.3184H78.5742V104H83.5781ZM101.488 104H106.82L100.189 84.2715H94.0508L87.4199 104H92.5332L93.791 99.666H100.244L101.488 104ZM96.9629 88.4551H97.0723L99.2598 96.0566H94.7617L96.9629 88.4551ZM37.4902 117.271V137H42.5078V131.217H45.7344C50.123 131.217 53.1445 128.469 53.1445 124.258C53.1445 120.02 50.2734 117.271 46.0352 117.271H37.4902ZM42.5078 121.113H44.709C46.8145 121.113 48.0723 122.221 48.0723 124.271C48.0723 126.336 46.8145 127.443 44.6816 127.443H42.5078V121.113ZM64.5742 116.93C58.5996 116.93 54.8262 120.854 54.8262 127.143C54.8262 133.432 58.5859 137.342 64.5742 137.342C70.5488 137.342 74.3086 133.432 74.3086 127.143C74.3086 120.854 70.5488 116.93 64.5742 116.93ZM64.5742 121.004C67.377 121.004 69.209 123.383 69.209 127.143C69.209 130.889 67.377 133.268 64.5742 133.268C61.7578 133.268 59.9395 130.889 59.9395 127.143C59.9395 123.383 61.7715 121.004 64.5742 121.004ZM81.7734 137V117.271H76.7559V137H81.7734ZM89.5254 137V125.42H89.6348L98.043 137H102.008V117.271H97.25V128.742H97.1406L88.7734 117.271H84.7676V137H89.5254ZM114.586 137V121.318H120.027V117.271H104.141V121.318H109.582V137H114.586Z" fill="#505355"/>
</svg>
